# xmcd
#
# Track frame offsets:
#	150
#	13648
#	29877
#	43138
#	60288
#	77095
#	94188
#	106434
#	119276
#	136775
#	153939
#	170084
#	184638
#	202294
#	215759
#	232049
#	247892
#	265542
#	282249
#	301023
#	318786
#	335168
#
# Disc length: 4711 seconds
#
# Revision: 1
# Processed by: cddbd v1.5.2PL0 Copyright (c) Steve Scherf et al.
# Submitted via: audiograbber 1.83.01
#
DISCID=38126516
DTITLE=Country Music  - Novermber 2009
DYEAR=2009
DGENRE=Country
TTITLE0=Novermber Hit List
TTITLE1=Novermber Hit List
TTITLE2=Novermber Hit List
TTITLE3=Novermber Hit List
TTITLE4=Novermber Hit List
TTITLE5=Novermber Hit List
TTITLE6=Novermber Hit List
TTITLE7=Novermber Hit List
TTITLE8=Novermber Hit List
TTITLE9=Novermber Hit List
TTITLE10=Novermber Hit List
TTITLE11=Novermber Hit List
TTITLE12=Novermber Hit List
TTITLE13=Novermber Hit List
TTITLE14=Novermber Hit List
TTITLE15=Novermber Hit List
TTITLE16=Novermber Hit List
TTITLE17=Novermber Hit List
TTITLE18=Novermber Hit List
TTITLE19=Novermber Hit List\\
TTITLE20=Novermber Hit List
TTITLE21=Novermber Hit List
EXTD=
EXTT0=
EXTT1=
EXTT2=
EXTT3=
EXTT4=
EXTT5=
EXTT6=
EXTT7=
EXTT8=
EXTT9=
EXTT10=
EXTT11=
EXTT12=
EXTT13=
EXTT14=
EXTT15=
EXTT16=
EXTT17=
EXTT18=
EXTT19=
EXTT20=
EXTT21=
PLAYORDER=
